<svg id="Camada_1" data-name="Camada 1" xmlns="http://www.w3.org/2000/svg" viewBox="0 0 26.71 31.84"><defs><style>.cls-1{fill:red;}.cls-2{fill:none;stroke:#000;stroke-miterlimit:10;stroke-width:0.5px;}.cls-3{fill:#fff;}</style></defs><path class="cls-1" d="M28.35,1.37V17.48a4.43,4.43,0,0,1-3.19,4l-8,2-.33.08-.21.26-4.72,5.82V24.82l-1.66.43-.4.1L9,25.56l-3.64.93V7.19Z" transform="translate(-2.64 -0.08)"/><path class="cls-2" d="M17.32,24.31" transform="translate(-2.64 -0.08)"/><path class="cls-2" d="M17.32,24.31" transform="translate(-2.64 -0.08)"/><path class="cls-2" d="M12,31.22" transform="translate(-2.64 -0.08)"/><path d="M11.18,31.42h0l.66-.16,5.5-6.78,8-2a5.41,5.41,0,0,0,4-4.95V.08l-24,6.08-2,.5-.69.18V28.2l.7-.18,2-.5,3.88-1v5.39M28.35,17.48a4.43,4.43,0,0,1-3.19,4l-8,2-.33.08-.21.26-4.72,5.82V24.82l-1.66.43-.4.1L9,25.56l-3.64.93V7.19l23-5.82Z" transform="translate(-2.64 -0.08)"/><path class="cls-3" d="M16,6.62V8.3a.67.67,0,0,1-.49.62l-1.69.43a.38.38,0,0,1-.5-.37V7.3a.68.68,0,0,1,.5-.62l1.69-.43A.37.37,0,0,1,16,6.62Z" transform="translate(-2.64 -0.08)"/><path class="cls-3" d="M21.34,5.27V7a.67.67,0,0,1-.49.62L19.16,8a.38.38,0,0,1-.5-.37V6a.68.68,0,0,1,.5-.62l1.69-.43A.37.37,0,0,1,21.34,5.27Z" transform="translate(-2.64 -0.08)"/><path class="cls-3" d="M26.68,3.92V5.6a.67.67,0,0,1-.5.62l-1.69.43A.37.37,0,0,1,24,6.28V4.6A.68.68,0,0,1,24.5,4l1.69-.43A.37.37,0,0,1,26.68,3.92Z" transform="translate(-2.64 -0.08)"/><path class="cls-3" d="M10.66,8V9.66a.66.66,0,0,1-.49.61l-1.69.43a.37.37,0,0,1-.5-.37V8.65A.68.68,0,0,1,8.48,8l1.69-.43A.37.37,0,0,1,10.66,8Z" transform="translate(-2.64 -0.08)"/><path class="cls-3" d="M16,20v1.69a.68.68,0,0,1-.49.62l-1.69.43a.38.38,0,0,1-.5-.37V20.64a.69.69,0,0,1,.5-.62l1.69-.42A.37.37,0,0,1,16,20Z" transform="translate(-2.64 -0.08)"/><path class="cls-3" d="M21.34,18.61V20.3a.68.68,0,0,1-.49.62l-1.69.43a.38.38,0,0,1-.5-.37V19.29a.68.68,0,0,1,.5-.62l1.69-.43A.37.37,0,0,1,21.34,18.61Z" transform="translate(-2.64 -0.08)"/><path class="cls-3" d="M26.68,17.26V19a.68.68,0,0,1-.49.62L24.5,20a.38.38,0,0,1-.5-.37V17.94a.68.68,0,0,1,.5-.62l1.69-.43A.37.37,0,0,1,26.68,17.26Z" transform="translate(-2.64 -0.08)"/><path class="cls-3" d="M10.66,21.32V23a.68.68,0,0,1-.49.62l-1.69.43a.38.38,0,0,1-.5-.37V22a.68.68,0,0,1,.49-.62L10.17,21A.37.37,0,0,1,10.66,21.32Z" transform="translate(-2.64 -0.08)"/></svg>