<svg id="Camada_1" data-name="Camada 1" xmlns="http://www.w3.org/2000/svg" viewBox="0 0 1330.55 264.28"><defs><style>.cls-1{fill:red;}.cls-2{fill:none;stroke:#000;stroke-miterlimit:10;stroke-width:0.5px;}.cls-3{fill:#fff;}.cls-4{fill:#e4e6eb;}</style></defs><path class="cls-1" d="M272.11,23.46V157.23c0,14.27-12.15,29.4-26.53,33l-66.67,16.88-2.68.68L174.49,210l-39.17,48.3V218.16l-13.84,3.52-3.25.83-7.1,1.8L80.94,232,81,71.84Z" transform="translate(-58.72 -12.78)"/><path class="cls-2" d="M180.56,213.85" transform="translate(-58.72 -12.78)"/><path class="cls-2" d="M180.56,213.85" transform="translate(-58.72 -12.78)"/><path class="cls-2" d="M136.25,271.23" transform="translate(-58.72 -12.78)"/><path d="M81,63.27,64.51,67.44,58.74,68.9l0,177.25,5.79-1.47,16.43-4.16,32.23-8.16v44.7l16.38-4.14.29-.07,5.48-1.39L181,215.2l66.67-16.87c18.12-4.59,32.79-23,32.79-41.1V12.78Zm191.15,94c0,14.27-12.15,29.4-26.53,33l-66.67,16.88-2.68.68L174.49,210l-39.17,48.3V218.16l-13.84,3.52-3.25.83-7.1,1.8L80.94,232,81,71.84,272.11,23.46Z" transform="translate(-58.72 -12.78)"/><path class="cls-3" d="M169.58,67.09v14a5.63,5.63,0,0,1-4.1,5.14l-14,3.55a3.09,3.09,0,0,1-4.1-3.06v-14a5.61,5.61,0,0,1,4.1-5.13l14-3.55A3.09,3.09,0,0,1,169.58,67.09Z" transform="translate(-58.72 -12.78)"/><path class="cls-3" d="M213.89,55.88v14a5.65,5.65,0,0,1-4.1,5.14l-14,3.55a3.08,3.08,0,0,1-4.09-3.07v-14a5.61,5.61,0,0,1,4.1-5.13l14-3.55A3.08,3.08,0,0,1,213.89,55.88Z" transform="translate(-58.72 -12.78)"/><path class="cls-3" d="M258.2,44.67v14a5.63,5.63,0,0,1-4.1,5.13l-14,3.55A3.07,3.07,0,0,1,236,64.25v-14a5.63,5.63,0,0,1,4.1-5.14l14-3.54A3.08,3.08,0,0,1,258.2,44.67Z" transform="translate(-58.72 -12.78)"/><path class="cls-3" d="M125.27,78.3v14a5.63,5.63,0,0,1-4.1,5.14l-14,3.55a3.09,3.09,0,0,1-4.1-3.06v-14a5.61,5.61,0,0,1,4.1-5.14l14-3.55A3.09,3.09,0,0,1,125.27,78.3Z" transform="translate(-58.72 -12.78)"/><path class="cls-3" d="M169.58,177.82v14a5.63,5.63,0,0,1-4.1,5.13l-14,3.55a3.08,3.08,0,0,1-4.09-3.06v-14a5.61,5.61,0,0,1,4.1-5.14l14-3.55A3.09,3.09,0,0,1,169.58,177.82Z" transform="translate(-58.72 -12.78)"/><path class="cls-3" d="M213.89,166.61v14a5.63,5.63,0,0,1-4.1,5.14l-14,3.55a3.08,3.08,0,0,1-4.09-3.06v-14a5.61,5.61,0,0,1,4.1-5.14l14-3.55A3.09,3.09,0,0,1,213.89,166.61Z" transform="translate(-58.72 -12.78)"/><path class="cls-3" d="M258.2,155.4v14a5.62,5.62,0,0,1-4.1,5.14l-14,3.55A3.09,3.09,0,0,1,236,175V161a5.61,5.61,0,0,1,4.1-5.13l14-3.55A3.09,3.09,0,0,1,258.2,155.4Z" transform="translate(-58.72 -12.78)"/><path class="cls-3" d="M125.27,189v14a5.63,5.63,0,0,1-4.1,5.13l-14,3.55a3.08,3.08,0,0,1-4.1-3.06v-14a5.63,5.63,0,0,1,4.1-5.14l14-3.55A3.09,3.09,0,0,1,125.27,189Z" transform="translate(-58.72 -12.78)"/><path class="cls-3" d="M322.61,48.42h22.61l53.94,100.5L453.1,48.42h22.6V202.18H453.1V92.74L399.16,193.23,345.22,92.74V202.18H322.61Z" transform="translate(-58.72 -12.78)"/><path class="cls-3" d="M591.19,132.13v70.05H569.48V186.29c-8.51,12.09-24.4,18.58-38.5,18.58-24.62,0-42.75-14.32-42.75-36.93,0-23.05,20.82-38.5,46.33-38.5,11.42,0,23.73,2.47,34.92,6.27v-3.58c0-14.55-6.72-30-29.77-30-11.42,0-22.61,4.48-32.68,9.62L499,95.42c16.57-8.28,31.11-11.63,43.87-11.63C574,83.79,591.19,103.48,591.19,132.13Zm-21.71,33.8V150.48A107.52,107.52,0,0,0,537.92,146c-15.44,0-28.43,8.73-28.43,21.26s11.19,20.14,25.74,20.14C549.56,187.41,565.67,180.25,569.48,165.93Z" transform="translate(-58.72 -12.78)"/><path class="cls-3" d="M612.89,237.55l4.93-17a30,30,0,0,0,14.1,3.58c7.16,0,12.08-2.24,15.89-9l5.82-12.31L603.94,86.47h23.72l37.16,91.32L700,86.47h23L672,212.7c-8.28,20.82-20.59,29.55-37.15,29.77A49.46,49.46,0,0,1,612.89,237.55Z" transform="translate(-58.72 -12.78)"/><path class="cls-4" d="M757.17,48.42h8.06L827,164.58,888.77,48.42h8.06V202.18h-8.06V64.54L827,180.7,765.23,64.54V202.18h-8.06Z" transform="translate(-58.72 -12.78)"/><path class="cls-4" d="M909.36,144.22c0-32.9,27.53-60.43,60-60.43s59.76,27.53,59.76,60.43-27.31,60.65-59.76,60.65S909.36,177.12,909.36,144.22Zm111.68,0c0-28.43-23.72-52.38-51.7-52.38-28.2,0-51.92,24-51.92,52.38,0,28.64,23.72,52.59,51.92,52.59C997.32,196.81,1021,172.86,1021,144.22Z" transform="translate(-58.72 -12.78)"/><path class="cls-4" d="M1031.63,86.47h8.73l46.78,102.06,46.78-102.06h8.73L1089.6,202.18h-4.92Z" transform="translate(-58.72 -12.78)"/><path class="cls-4" d="M1152.26,54.24a6.73,6.73,0,0,1,6.72-6.71,6.88,6.88,0,0,1,6.71,6.71A6.73,6.73,0,0,1,1159,61,6.6,6.6,0,0,1,1152.26,54.24ZM1155,86.47H1163V202.18H1155Z" transform="translate(-58.72 -12.78)"/><path class="cls-4" d="M1274.69,180.92l5.59,6.05c-9.62,10.51-29.76,17.9-48.34,17.9-30.89,0-56.85-27.75-56.85-60.88,0-33.79,25.07-60.2,56.85-60.2,33.12,0,55.06,25.74,55.06,64.23H1183.37c1.79,26.86,23.5,48.79,48.57,48.79C1248.5,196.81,1265.06,191.44,1274.69,180.92Zm-91.32-41h95.57c-1.34-28.87-19.69-48.12-47-48.12C1206,91.84,1185.16,112.88,1183.37,140Z" transform="translate(-58.72 -12.78)"/><path class="cls-4" d="M1298,195.47l80.35-100.94h-79V86.47h89.53v6.72l-80.35,100.94h80.8v8.05H1298Z" transform="translate(-58.72 -12.78)"/></svg>