<svg xmlns="http://www.w3.org/2000/svg" viewBox="0 0 21 27"><defs><style>.cls-1{fill:#9ca3af;}</style></defs><g id="Camada_2" data-name="Camada 2"><g id="Camada_1-2" data-name="Camada 1"><path class="cls-1" d="M13.88,23.63a3.38,3.38,0,0,1-6.76,0v0h6.76Z"/><path class="cls-1" d="M18.74,18.44V11.33a8.21,8.21,0,0,0-6.1-7.92V2.09a2.1,2.1,0,0,0-4.2,0V3.38a8.23,8.23,0,0,0-6.18,8v7.08L0,19.85v2.52H21V19.85Zm1,2.66H1.27v-.56L3,19.48l.58-.38V11.33a7,7,0,0,1,7-6.94h0a7,7,0,0,1,7,6.94v7.81l.59.37,1.67,1Z"/></g></g></svg>