<svg xmlns="http://www.w3.org/2000/svg" viewBox="0 0 25.69 27"><defs><style>.cls-1{fill:#9ca3af;}.cls-2{fill:#ef4444;}</style></defs><g id="Camada_2" data-name="Camada 2"><g id="Camada_1-2" data-name="Camada 1"><path class="cls-1" d="M13.88,23.63a3.38,3.38,0,0,1-6.76,0v0h6.75Z"/><path class="cls-1" d="M18.73,18.44V17.9h0a8.15,8.15,0,0,1-1.22-.09v1.33l.59.37,1.67,1v.55H1.27v-.56l1.67-1.07.59-.37V11.33a7,7,0,0,1,7-6.94,6.75,6.75,0,0,1,2.11.33,7.2,7.2,0,0,1,1-1,7.51,7.51,0,0,0-1-.33V2.08a2.1,2.1,0,0,0-4.19,0v1.3a8.22,8.22,0,0,0-6.18,8v7.08L0,19.84v2.52H21V19.84Z"/><path class="cls-2" d="M25.69,9.9a7,7,0,0,1-7,7h0a7,7,0,0,1-7-7,6.89,6.89,0,0,1,1.9-4.78,5.48,5.48,0,0,1,1-.9A6.86,6.86,0,0,1,18.69,2.9,7,7,0,0,1,25.69,9.9Z"/></g></g></svg>